<svg version="1.1" xmlns="http://www.w3.org/2000/svg" xmlns:xlink="http://www.w3.org/1999/xlink" width="91.001" height="54.672" viewBox="0,0,91.001,54.672"><g transform="translate(-195.169,-148.82)"><g data-paper-data="{&quot;isPaintingLayer&quot;:true}" fill-rule="nonzero" stroke-linejoin="miter" stroke-miterlimit="10" stroke-dasharray="" stroke-dashoffset="0" style="mix-blend-mode: normal"><path d="M286.17,194.887c0,4.752 -3.854,8.605 -8.605,8.605h-73.792c-4.752,0 -8.604,-3.854 -8.604,-8.605v-37.463c0,-4.752 3.852,-8.604 8.604,-8.604h73.791c4.754,0 8.605,3.852 8.605,8.604v37.463z" fill="#aa8ee3" stroke="none" stroke-width="1" stroke-linecap="butt"/><path d="M282.755,157.424v37.462c0,2.862 -2.327,5.19 -5.191,5.19h-73.791c-2.861,0 -5.19,-2.328 -5.19,-5.19v-37.463c0,-2.862 2.329,-5.19 5.19,-5.19h73.791c2.864,0 5.191,2.329 5.191,5.191z" fill="#aa8ee3" stroke="none" stroke-width="1" stroke-linecap="butt"/><text transform="translate(219.77683,172.22641) scale(0.24306,0.24306)" font-size="40" xml:space="preserve" fill="#3d3847" fill-rule="nonzero" stroke="none" stroke-width="1" stroke-linecap="butt" stroke-linejoin="miter" stroke-miterlimit="10" stroke-dasharray="" stroke-dashoffset="0" font-family="Pixel" font-weight="normal" text-anchor="start" style="mix-blend-mode: normal"><tspan x="0" dy="0">The Castle</tspan></text><text transform="translate(221.8564,194.28483) scale(0.15962,0.15962)" font-size="40" xml:space="preserve" fill="#3d3847" fill-rule="nonzero" stroke="none" stroke-width="1" stroke-linecap="butt" stroke-linejoin="miter" stroke-miterlimit="10" stroke-dasharray="" stroke-dashoffset="0" font-family="Handwriting" font-weight="normal" text-anchor="start" style="mix-blend-mode: normal"><tspan x="0" dy="0">Press any key to start</tspan></text><path d="M209.39652,185.66974l73.90384,0.27576" fill="none" stroke="#000000" stroke-width="0.5" stroke-linecap="round"/></g></g></svg>